<svg xmlns="http://www.w3.org/2000/svg" xmlns:xlink="http://www.w3.org/1999/xlink" version="1.1" x="0px" y="0px" style="enable-background:new 0 0 1080 1080;" xml:space="preserve" viewBox="178.19 91.36 753.93 888.06">
<style type="text/css">
	.st0{fill:#FFECDD;}
	.st1{fill:#F8BAB4;}
	.st2{fill:#CAE9ED;}
	.st3{fill:#EC9A4A;}
	.st4{fill:#0D4D90;}
</style>
<g id="bckgr">
	<g>
		<path class="st0" d="M733.96,761.52c-12.01-0.31-25.75,0.94-29.49,1.72c-3.74,0.78-7.02,2.81-7.02,2.81s11.39-16.54,15.6-22.62    c4.21-6.09,22.16-33.86,25.9-51.33c3.74-17.48,6.71-42.44,2.81-53.83c-3.9-11.39-28.71-45.87-32.61-57.73    c-3.9-11.86-7.96-29.65-5.77-44.47c2.18-14.82,14.35-36.51,13.26-41.19c-1.09-4.68-17.63-23.72-22.94-30.27    c-0.14-0.17-0.29-0.35-0.44-0.54c-41.87-3.15-79.21,5.64-98.46,19.08c-55.78,38.92-68.04,76.41-50.49,119.7    c12.98,32.02,95.94,42.12,92.43,71.37c-3.51,29.25-28.08-18.72-65.52,12.87c-13.2,11.14,26.15,30.97,15.21,78.39    c-21.06,91.26-70.47,94.44-104.49,92.56c-23.26-1.29-82.57,4.11-76.54,53.19c5.42,44.05,91.04,78.3,191.65,65.46    c15.14-1.93,35.8-6.6,59.2-14.32c-5.13-3.83-8.62-8.38-10.62-13.4c-6.78-17,11.2-36.7,55.85-49.11s70.37-38.46,87.8-67.72    c8.1-13.61,8.88-41.58,11.41-69.84c-0.2,0.01-0.39,0.02-0.59,0.02C775.62,762.77,745.97,761.83,733.96,761.52z"/>
	</g>
	<g>
		<g>
			<path class="st1" d="M862.8,682.33c-0.19,2.3-0.42,4.6-0.74,6.94c-3.28,24.34-17.48,55.86-20.28,58.36     c-2.79,2.48-16.94,14-41.07,14.65c-2.53,28.26-3.31,56.23-11.41,69.84c-17.42,29.26-43.14,55.31-87.8,67.72     s-62.63,32.11-55.85,49.11c2,5.01,5.49,9.56,10.62,13.4c94.25-31.1,232.96-111.76,234.25-262.94     C881.79,691.13,872.31,685.27,862.8,682.33z"/>
		</g>
		<g>
			<polygon class="st2" points="862.8,682.33 862.8,682.33 862.8,682.33    "/>
		</g>
		<g>
			<polygon class="st2" points="800.7,762.28 800.7,762.28 800.7,762.28    "/>
		</g>
	</g>
	<g>
		<path class="st3" d="M827.26,428.6c-13.35,0-24.21-10.86-24.21-24.21c0-13.35,10.86-24.21,24.21-24.21s24.21,10.86,24.21,24.21    C851.46,417.74,840.6,428.6,827.26,428.6z M827.26,383.19c-11.69,0-21.21,9.51-21.21,21.21c0,11.69,9.51,21.21,21.21,21.21    s21.21-9.51,21.21-21.21C848.46,392.7,838.95,383.19,827.26,383.19z"/>
	</g>
	<g>
		<g>
			<path class="st4" d="M521.98,660.66c2.69-1.22,5.4-3.71,6.56-6.45c-0.76-0.32-1.52-0.64-2.28-0.96c-0.6,3.57,2.12,6.4,5.38,7.31     c-0.1-0.76-0.2-1.52-0.3-2.28c-3.69,2.05-4.29,4.97-5.49,8.71c0.8,0.22,1.61,0.44,2.41,0.66c0.81-4.42-2.52-8.59-7.09-8.48     c-1.61,0.04-1.61,2.54,0,2.5c2.84-0.07,5.21,2.43,4.68,5.32c-0.29,1.57,1.91,2.22,2.41,0.66c0.99-3.08,1.22-5.48,4.35-7.22     c0.95-0.53,0.72-2-0.3-2.28c-1.78-0.5-4-2.07-3.64-4.24c0.21-1.27-1.69-2.37-2.28-0.96c-1.02,2.41-3.3,4.49-5.66,5.56     C519.25,659.17,520.52,661.32,521.98,660.66L521.98,660.66z"/>
		</g>
	</g>
	<g>
		<g>
			<path class="st4" d="M781.03,338.57c2.69-1.22,5.4-3.71,6.56-6.45c-0.76-0.32-1.52-0.64-2.28-0.96c-0.6,3.57,2.12,6.4,5.38,7.31     c-0.1-0.76-0.2-1.52-0.3-2.28c-3.69,2.05-4.29,4.97-5.49,8.71c0.8,0.22,1.61,0.44,2.41,0.66c0.81-4.42-2.52-8.59-7.09-8.48     c-1.61,0.04-1.61,2.54,0,2.5c2.84-0.07,5.21,2.43,4.68,5.32c-0.29,1.57,1.91,2.22,2.41,0.66c0.99-3.08,1.22-5.48,4.35-7.22     c0.95-0.53,0.72-2-0.3-2.28c-1.78-0.5-4-2.07-3.64-4.24c0.21-1.27-1.69-2.37-2.28-0.96c-1.02,2.41-3.3,4.49-5.66,5.56     C778.31,337.07,779.58,339.23,781.03,338.57L781.03,338.57z"/>
		</g>
	</g>
	<g>
		<g>
			<path class="st4" d="M591.57,240.35c2.69-1.22,5.4-3.71,6.56-6.45c-0.76-0.32-1.52-0.64-2.28-0.96c-0.6,3.57,2.12,6.4,5.38,7.31     c-0.1-0.76-0.2-1.52-0.3-2.28c-3.69,2.05-4.29,4.97-5.49,8.71c0.8,0.22,1.61,0.44,2.41,0.66c0.81-4.42-2.52-8.59-7.09-8.48     c-1.61,0.04-1.61,2.54,0,2.5c2.84-0.07,5.21,2.43,4.68,5.32c-0.29,1.57,1.91,2.22,2.41,0.66c0.99-3.08,1.22-5.48,4.35-7.22     c0.95-0.53,0.72-2-0.3-2.28c-1.78-0.5-4-2.07-3.64-4.24c0.21-1.27-1.69-2.37-2.28-0.96c-1.02,2.41-3.3,4.49-5.66,5.56     C588.85,238.86,590.12,241.02,591.57,240.35L591.57,240.35z"/>
		</g>
	</g>
	<g>
		<g>
			<path class="st3" d="M930.27,796.44c-1.34-41.56-18.23-76.61-39.76-97.03c-1.29,151.17-140,231.83-234.25,262.94     c18.59,13.88,58.8,18.32,128.48,1.2C858.99,945.28,932.8,874.66,930.27,796.44z M869.64,892.97     c-21.75,32.11-50.44,41.01-50.44,41.01s31.05-19.31,44.34-47.86C876.81,857.57,879.74,878.06,869.64,892.97z"/>
		</g>
	</g>
	<g>
		<path class="st0" d="M851.76,616.41c9.17,24.4,12.83,44.34,11.04,65.92c9.51,2.93,18.99,8.8,27.71,17.07    c0.11-12.38-0.7-25.22-2.54-38.56c-11.39-82.68-48.66-133.8-93.51-163.25c5.82,13.53,11.64,26.03,14.55,31.6    C814.47,539.64,841.62,589.42,851.76,616.41z"/>
	</g>
	<g>
		<path class="st4" d="M580.62,802.61c-13.35,0-24.21-10.86-24.21-24.21s10.86-24.21,24.21-24.21s24.21,10.86,24.21,24.21    S593.96,802.61,580.62,802.61z M580.62,757.2c-11.69,0-21.21,9.51-21.21,21.21s9.51,21.21,21.21,21.21s21.21-9.51,21.21-21.21    S592.31,757.2,580.62,757.2z"/>
	</g>
</g>
<g id="chrtcr">
	<g>
		<g>
			<path class="st4" d="M604.87,817.66c2.69-1.22,5.4-3.71,6.56-6.45c-0.76-0.32-1.52-0.64-2.28-0.96c-0.6,3.57,2.12,6.4,5.38,7.31     c-0.1-0.76-0.2-1.52-0.3-2.28c-3.69,2.05-4.29,4.97-5.49,8.71c0.8,0.22,1.61,0.44,2.41,0.66c0.81-4.42-2.52-8.59-7.09-8.48     c-1.61,0.04-1.61,2.54,0,2.5c2.84-0.07,5.21,2.43,4.68,5.32c-0.29,1.57,1.91,2.22,2.41,0.66c0.99-3.08,1.22-5.48,4.35-7.22     c0.95-0.53,0.72-2-0.3-2.28c-1.78-0.5-4-2.07-3.64-4.24c0.21-1.27-1.69-2.37-2.28-0.96c-1.02,2.41-3.3,4.49-5.66,5.56     C602.14,816.16,603.41,818.32,604.87,817.66L604.87,817.66z"/>
		</g>
	</g>
	<g>
		<g>
			<path class="st4" d="M643.15,561.53c2.69-1.22,5.4-3.71,6.56-6.45c-0.76-0.32-1.52-0.64-2.28-0.96c-0.6,3.57,2.12,6.4,5.38,7.31     c-0.1-0.76-0.2-1.52-0.3-2.28c-3.69,2.05-4.29,4.97-5.49,8.71c0.8,0.22,1.61,0.44,2.41,0.66c0.81-4.42-2.52-8.59-7.09-8.48     c-1.61,0.04-1.61,2.54,0,2.5c2.84-0.07,5.21,2.43,4.68,5.32c-0.29,1.57,1.91,2.22,2.41,0.66c0.99-3.08,1.22-5.48,4.35-7.22     c0.95-0.53,0.72-2-0.3-2.28c-1.78-0.5-4-2.07-3.64-4.24c0.21-1.27-1.69-2.37-2.28-0.96c-1.02,2.41-3.3,4.49-5.66,5.56     C640.43,560.04,641.7,562.19,643.15,561.53L643.15,561.53z"/>
		</g>
	</g>
	<g>
		<g>
			
				<ellipse transform="matrix(0.9392 -0.3433 0.3433 0.9392 -76.2766 253.7053)" class="st1" cx="678.39" cy="342.28" rx="3.11" ry="4.74"/>
		</g>
		<g>
			
				<ellipse transform="matrix(0.3822 -0.9241 0.9241 0.3822 121.7401 865.0342)" class="st1" cx="707.81" cy="341.47" rx="4.74" ry="3.11"/>
		</g>
		<g>
			<path class="st0" d="M794.13,836.25"/>
		</g>
		<g>
			<path class="st0" d="M830.42,755.42c0,0-8.71,3.8-19.32,5.7c-9.7,1.74-21.39,1.57-21.45,1.89c-2.37,11.85-6.3,76.88-6.3,76.88     l11.08-6.92L830.42,755.42z"/>
		</g>
		<g>
			<path class="st1" d="M694.35,374.29c0,0,2.42,0,7.86-1.61c5.44-1.61,10.68,2.02,10.68,2.02l-5.44-14.71c0,0-4.64,7.05-8.47,7.86     s-5.64,1.01-5.64,1.01L694.35,374.29z"/>
		</g>
		<g>
			<g>
				<g>
					<path class="st4" d="M712.82,591.98c0.13,6.94-2.26,14.13-4.14,20.74c-1.56,5.46-2.89,11.19-4.84,16.53       c-1.85,5.08-6.47,9.57-10,13.56c-3.51,3.97-7.21,7.77-11.09,11.39c-8.3,7.75-17.37,14.57-27.04,20.52       c0.61,0.25,1.22,0.5,1.84,0.75c-1.16-4.86,4.61-9.81,7.36-13.16c1.98-2.42,3.97-4.84,5.95-7.26c3.44-4.2,8.09-8.59,9.9-13.84       c1.2-3.48,0.98-7.71-1.81-10.4c-3.98-3.84-13.28-0.63-15.53-6.25c-0.59-1.48-3.01-0.83-2.41,0.66       c1.38,3.45,4.24,4.75,7.81,5.26c4.25,0.61,10.16,1.09,10.16,6.85c0,4.24-3.22,7.8-5.73,10.87       c-4.36,5.33-8.73,10.64-13.09,15.96c-2.94,3.58-6.2,7.06-5.03,11.97c0.19,0.78,1.16,1.16,1.84,0.75       c9.61-5.91,18.65-12.67,26.93-20.34c4.3-3.98,8.39-8.19,12.25-12.6c3.29-3.76,7.22-7.81,9.39-12.36       c2.55-5.34,3.74-11.95,5.37-17.62c2.02-7.01,4.54-14.6,4.4-21.98C715.29,590.37,712.79,590.37,712.82,591.98L712.82,591.98z"/>
				</g>
			</g>
			<g>
				<g>
					<path class="st4" d="M702.01,537.09c-4.94,18.28-6.25,37.45-8.42,56.2c-0.87,7.54-1.52,15.39-3.64,22.72       c-0.27,0.93-0.5,2.29-1.09,3.08c-1.52,2.02-4.39,1.59-6.75,1.72c-6.54,0.34-13.07,0.79-19.61,1.11c-1.6,0.08-1.61,2.58,0,2.5       c7.15-0.36,14.29-0.97,21.45-1.21c3.04-0.1,5.32,0.18,6.96-2.65c3.08-5.34,3.37-12.98,4.16-18.92       c2.82-21.27,3.74-43.08,9.35-63.88C704.84,536.2,702.42,535.54,702.01,537.09L702.01,537.09z"/>
				</g>
			</g>
			<g>
				<g>
					<path class="st4" d="M677.7,642.09c1.61,0,1.61-2.5,0-2.5C676.09,639.59,676.09,642.09,677.7,642.09L677.7,642.09z"/>
				</g>
			</g>
			<g>
				<g>
					<path class="st4" d="M678.1,640.91c-3.32,0.82-6.94-1.81-9.85-3.09c-1.65-0.73-4-1.81-5.47-0.19c-0.28,0.3-0.49,0.8-0.32,1.22       c1.1,2.74,2.65,5.2,4.86,7.19c1.42,1.27,3.57,3.27,5.6,2.91c0.39-0.07,0.81-0.48,0.87-0.87c0.02-0.1,0.04-0.2,0.05-0.31       c0.09-0.5-0.05-1.18-0.57-1.41c-0.08-0.03-0.15-0.07-0.23-0.1c-1.46-0.64-2.73,1.51-1.26,2.16c0.08,0.03,0.15,0.07,0.23,0.1       c-0.19-0.47-0.38-0.94-0.57-1.41c-0.02,0.1-0.04,0.2-0.05,0.31c0.29-0.29,0.58-0.58,0.87-0.87c-0.94,0.17-3.57-2.6-4.14-3.21       c-1.42-1.51-2.48-3.22-3.25-5.14c-0.11,0.41-0.21,0.81-0.32,1.22c0.81-0.89,6.25,2.39,7.17,2.78c2.25,0.96,4.61,1.75,7.05,1.14       C680.32,642.94,679.66,640.53,678.1,640.91L678.1,640.91z"/>
				</g>
			</g>
			<g>
				<g>
					<path class="st4" d="M674.29,648.17c-3.93-1.69-8.11-4.13-12.3-5.09c-2.85-0.65-5.63,0.04-7,2.77       c-0.33,0.66-0.12,1.28,0.45,1.71c4.28,3.28,9.08,5.32,14.42,6.11c1.57,0.23,2.25-2.17,0.66-2.41       c-5.14-0.76-9.71-2.7-13.83-5.86c0.15,0.57,0.3,1.14,0.45,1.71c2.3-4.57,12.65,1.82,15.88,3.21       C674.5,650.95,675.77,648.8,674.29,648.17L674.29,648.17z"/>
				</g>
			</g>
			<g>
				<g>
					<path class="st4" d="M665.78,657.35c-5.14-0.61-10.34-0.93-15.38-2.18c0.25,0.61,0.5,1.22,0.75,1.84       c1.97-4.38,9.94-4.46,13.86-4.29c1.61,0.07,1.6-2.43,0-2.5c-4.83-0.22-13.64,0.23-16.02,5.52c-0.32,0.71-0.1,1.63,0.75,1.84       c5.25,1.3,10.68,1.63,16.04,2.27C667.38,660.04,667.36,657.53,665.78,657.35L665.78,657.35z"/>
				</g>
			</g>
		</g>
		<g>
			<g>
				<path class="st4" d="M669.85,155.14c17.08-11.07,37.59-12.79,57.38-14.19c1.6-0.11,1.61-2.61,0-2.5      c-20.21,1.43-41.2,3.23-58.65,14.53C667.25,153.85,668.5,156.02,669.85,155.14L669.85,155.14z"/>
			</g>
		</g>
		<g>
			<g>
				<path class="st4" d="M728.5,139.01c-3.48-8.81-18.36-10.89-26.48-8.91c-1.56,0.38-0.9,2.79,0.66,2.41      c6.49-1.58,20.54-0.08,23.41,7.16C726.67,141.16,729.09,140.51,728.5,139.01L728.5,139.01z"/>
			</g>
		</g>
		<g>
			<g>
				<path class="st4" d="M669.65,123.95c-6.66,3.04-14.88,7.48-18.28,14.36c-1.83,3.71-1.33,7.87-1.2,11.87      c0.19,6.21,0.08,12.43-0.25,18.63c-1.24,23.23-5,46.26-6.69,69.46c-1.74,23.9-2.41,47.86-2.91,71.81      c-0.44,21.21-1.82,42.73,3.2,63.53c5.16,21.36,14.47,41.92,25.82,60.67c0.83,1.37,3,0.12,2.16-1.26      c-9.87-16.29-18.02-33.83-23.43-52.11c-5.94-20.09-5.85-40.21-5.45-60.98c0.43-22.32,0.91-44.64,2.16-66.92      c1.21-21.71,3.77-43.21,6.04-64.82c1.29-12.29,2.22-24.66,1.88-37.03c-0.18-6.63-0.42-11.72,4.77-16.56      c3.89-3.63,8.64-6.28,13.44-8.48C672.37,125.44,671.1,123.28,669.65,123.95L669.65,123.95z"/>
			</g>
		</g>
		<g>
			<g>
				<path class="st4" d="M668.27,153.41c-1.45,1.97-1.05,5.47-0.98,7.73c0.16,5.19,0.79,10.37,1.43,15.52      c1.59,12.95,3.9,25.83,5.11,38.83c1.65,17.68-2.63,34.15-4.75,51.54c-2.12,17.36-2.05,34.93-0.57,52.33      c1.66,19.54,5.08,38.87,9.2,58.02c0.34,1.57,2.75,0.91,2.41-0.66c-7.19-33.47-12.29-67.82-9.33-102.11      c1.44-16.64,6.43-32.99,6.1-49.76c-0.26-12.98-2.64-25.89-4.42-38.72c-0.89-6.41-1.76-12.84-2.31-19.29      c-0.25-2.96-1.66-9.53,0.27-12.16C671.38,153.38,669.22,152.13,668.27,153.41L668.27,153.41z"/>
			</g>
		</g>
		<g>
			<g>
				<path class="st4" d="M671.63,124.62c-0.05-3.94-0.55-7.86-0.93-11.78c-0.18-1.81-0.37-3.62-0.45-5.44      c-0.02-0.46-0.23-1.79-0.03-2.24c-0.07-0.84,0.02-0.97,0.25-0.4c0.31,0.6,0.72,1.13,1.23,1.59c2.69,3.87,3.25,7.94,4.45,12.3      c0.71,2.57,1.9,4.5,4.67,4.82c1.6,0.18,1.58-2.32,0-2.5c-2.43-0.28-2.47-4.25-2.84-6.02c-0.58-2.74-1.53-5.41-2.89-7.87      c-0.86-1.56-3.76-6.62-6.37-4.8c-1.87,1.31-0.95,5.69-0.81,7.43c0.4,4.96,1.17,9.91,1.22,14.9      C669.15,126.22,671.65,126.23,671.63,124.62L671.63,124.62z"/>
			</g>
		</g>
		<g>
			<g>
				<path class="st4" d="M682.5,122.46c1.34-4.7,2.21-9.49,2.66-14.36c0.25-2.71,0.38-5.42,0.4-8.14c0.04-3.71,0.87-6.34,5.36-6.41      c3.37-0.06,2.85,0.7,3.2,3.56c0.39,3.2,0.81,6.36,0.92,9.59c0.22,6.23-0.45,12.34-2.26,18.31c-0.47,1.54,1.95,2.2,2.41,0.66      c1.78-5.89,2.51-11.92,2.38-18.07c-0.1-4.45,0.08-11.62-2.12-15.62c-0.2-0.37-0.65-0.64-1.08-0.62c-4,0.2-9.28-0.84-11.33,3.98      c-0.52,1.22,0.04,4.16,0.01,5.51c-0.04,2.12-0.14,4.23-0.32,6.34c-0.41,4.97-1.28,9.82-2.65,14.6      C679.65,123.35,682.06,124.01,682.5,122.46L682.5,122.46z"/>
			</g>
		</g>
		<g>
			<g>
				<path class="st4" d="M694.98,126.63c7.75-4.77,13.12-8.7,15-17.99c0.24-1.17,0.43-2.35,0.69-3.51c0.33-1.49-0.12-2.86,1.63-1.8      c2.07,1.25,1.28,4.74,1.04,6.85c-0.79,6.98-3.65,13.55-8.12,18.99c-1.01,1.23,0.74,3.01,1.77,1.77      c4.19-5.09,7.62-11.59,8.6-18.19c0.49-3.33,1.83-10.68-2.17-12.67c-4.82-2.4-5.1,4.23-5.69,7.17c-0.84,4.14-1.72,7.72-4.79,10.8      c-2.64,2.65-6.05,4.47-9.21,6.42C692.35,125.32,693.61,127.48,694.98,126.63L694.98,126.63z"/>
			</g>
		</g>
		<g>
			<g>
				<path class="st4" d="M681.86,377.65c6.93,9.47,11.35,23.01,6.13,34.3c-4.12,8.92-12.45,15.81-19.03,22.88      c-1.1,1.18,0.67,2.95,1.77,1.77c7.19-7.72,16.85-15.54,20.42-25.8c4.06-11.67-0.12-24.82-7.13-34.41      C683.08,375.1,680.91,376.35,681.86,377.65L681.86,377.65z"/>
			</g>
		</g>
		<g>
			<g>
				<path class="st4" d="M720.5,378.4c5.43,11.46,16.16,26.78,29.88,28.31c1.6,0.18,1.58-2.32,0-2.5      c-12.64-1.41-22.75-16.61-27.72-27.08C721.97,375.68,719.82,376.95,720.5,378.4L720.5,378.4z"/>
			</g>
		</g>
		<g>
			<g>
				<path class="st4" d="M706.88,360.87c1.28,8.07,3.48,16.66,12.87,17.61c7.39,0.75,13.65-1.86,20.02,3.59      c6.48,5.54,8.39,14.28,9.91,22.27c0.3,1.58,2.71,0.91,2.41-0.66c-2.14-11.24-6.56-25.84-19.83-27.91      c-5.26-0.82-11.04,1.72-16.09-0.71c-5.22-2.5-6.07-9.81-6.87-14.84C709.04,358.62,706.63,359.29,706.88,360.87L706.88,360.87z"/>
			</g>
		</g>
		<g>
			<g>
				<path class="st4" d="M751.5,406.84c13.94,4.28,19.7,18.48,22.79,31.47c3.08,12.95,5.86,25.75,10.35,38.33      c8.92,25,21.45,48.48,33.65,71.98c11.71,22.53,23.63,45.27,32.83,68.97c6.53,16.83,10.85,34.26,10.81,52.4      c-0.06,25.71-5.64,50.69-18.74,72.91c-0.82,1.39,1.34,2.65,2.16,1.26c21.11-35.83,24.52-80.83,10.88-119.92      c-17.82-51.08-50.07-95.8-68.58-146.58c-2.66-7.29-5.01-14.69-6.93-22.21c-2.12-8.25-3.37-16.74-5.93-24.87      c-3.61-11.49-10.57-22.44-22.64-26.14C750.62,403.96,749.96,406.37,751.5,406.84L751.5,406.84z"/>
			</g>
		</g>
		<g>
			<g>
				<path class="st4" d="M668.96,437.36c8.85,10.56,17.7,21.13,26.54,31.69c4.21,5.03,8.43,10.06,12.64,15.09      c1.97,2.36,5.14,5.19,6.33,8.03c2.24,5.31-1.34,9.44-3.59,13.82c-9.54,18.55-12.05,40.37-7.58,60.7      c2.38,10.85,6.89,20.95,13,30.2c6.64,10.06,14.6,19.31,19.61,30.37c10.13,22.39,8.02,48.57-0.02,71.23      c-9.37,26.43-26.68,49.14-43.44,71.27c0.72,0.42,1.44,0.84,2.16,1.26c4.77-6.62,13.31-7.82,20.89-8.34      c8.4-0.58,16.84-0.33,25.24,0.11c15.72,0.82,31.26,1.78,47.01,1.28c19.91-0.63,45.44-1.66,57.58-20.17      c0.88-1.35-1.28-2.6-2.16-1.26c-13.41,20.46-44.96,18.96-66.46,19.22c-16.87,0.2-33.66-2-50.53-2      c-11.35,0-26.31-0.37-33.71,9.91c-0.95,1.32,1.21,2.52,2.16,1.26c28.3-37.38,60.6-82.43,47.97-132.16      c-6.18-24.32-26.74-40.7-34.51-64.28c-8.04-24.41-4.39-49.26,7.36-71.66c2.43-4.63,3.38-8.73,0.41-13.33      c-3.77-5.83-9.04-10.97-13.49-16.29c-10.53-12.58-21.07-25.15-31.6-37.73C669.69,434.36,667.93,436.14,668.96,437.36      L668.96,437.36z"/>
			</g>
		</g>
		<g>
			<g>
				<path class="st4" d="M691.2,407.82c8.23,3.65,18.06,2.76,26.78,2.03c10.37-0.87,20.84-1.59,31.11-3.28      c1.58-0.26,0.91-2.67-0.66-2.41c-9.57,1.58-19.32,2.2-28.98,3.06c-8.61,0.77-18.85,2.04-26.99-1.56      C691,405.02,689.73,407.17,691.2,407.82L691.2,407.82z"/>
			</g>
		</g>
		<g>
			<g>
				<path class="st4" d="M707.86,299.76c-0.65,4.04-0.84,8.06-0.28,12.13c0.43,3.15,1.06,8.37,3.25,10.88      c1.29,1.48,1.92,0.68,3.47,0.78c4.11,0.26,6.93,3.83,7.49,7.59c0.28,1.85,0.08,4.04-0.5,5.82c-0.14,0.45-3.92,7.1-4.79,5.22      c-0.25,0.61-0.5,1.22-0.75,1.84c0.13-0.03,0.25-0.06,0.38-0.1c-0.51-0.29-1.03-0.58-1.54-0.87c0.02,0.09,0.04,0.18,0.06,0.28      c0.34,1.57,2.75,0.91,2.41-0.66c-0.02-0.09-0.04-0.18-0.06-0.28c-0.14-0.67-0.91-1.03-1.54-0.87c-0.13,0.03-0.25,0.06-0.38,0.1      c-0.84,0.21-1.08,1.13-0.75,1.84c1.27,2.72,5.42,0.57,6.9-0.84c3.27-3.11,4.1-10.28,2.61-14.35c-1.37-3.73-4.77-6.6-8.55-7.37      c-1.97-0.4-1.32,1.6-3.25-1.42c-0.82-1.28-1.1-3.29-1.44-4.79c-1.07-4.72-1.1-9.48-0.33-14.25      C710.52,298.85,708.11,298.17,707.86,299.76L707.86,299.76z"/>
			</g>
		</g>
		<g>
			<g>
				<path class="st4" d="M714.37,343.99c-1.96,10.18-9.71,21.46-20.35,24.14c-7.27,1.83-15.03-9.2-18.07-14.3      c-0.82-1.38-2.99-0.12-2.16,1.26c3.46,5.78,11.44,16.72,19.53,15.88c5.44-0.56,11.37-5.52,14.93-9.36      c4.42-4.78,7.31-10.59,8.54-16.97C717.08,343.08,714.67,342.41,714.37,343.99L714.37,343.99z"/>
			</g>
		</g>
		<g>
			<g>
				<path class="st4" d="M702.44,328.24c0.1,1.47,0.21,2.9,0.07,4.37c-0.15,1.6,2.35,1.59,2.5,0c0.14-1.47,0.02-2.9-0.07-4.37      C704.83,326.65,702.33,326.64,702.44,328.24L702.44,328.24z"/>
			</g>
		</g>
		<g>
			<g>
				<path class="st4" d="M707.52,299.4c-5.13,4.16-6.6,12.12-9.53,17.75c-4.59,8.84-19,9.41-26.81,4.64      c-1.38-0.84-2.63,1.32-1.26,2.16c7.12,4.34,20.36,4.83,27.07-0.92c6.42-5.49,5.68-16.49,12.3-21.86      C710.54,300.16,708.76,298.4,707.52,299.4L707.52,299.4z"/>
			</g>
		</g>
		<g>
			<g>
				<path class="st4" d="M672.34,280.99c8.35-8.65,24.97-9,35.16-3.82c2.99,1.52,5.69,3.66,7.66,6.39c1.11,1.54,1.44,3.25,3.3,3.89      c1.61,0.56,3.78,0.11,5.47,0.27c4.74,0.47,8.93,2.49,12.41,5.77c12.61,11.9,17.33,28.61,12.3,45.25      c-1.15,3.8-2.66,7.42-4.48,10.94c-0.74,1.42-1.45,2.52-1.34,4.17c0.18,2.76,2.3,5.15,3.93,7.22c3.13,3.97,6.47,7.91,7.87,12.88      c2.27,8.06-1.53,15.74-6.14,22.18c-0.94,1.31,1.23,2.56,2.16,1.26c7.47-10.45,9.76-21.77,2.09-32.66      c-2.16-3.07-6.06-6.24-7.14-9.9c-0.72-2.43,0.87-4.03,1.91-6.19c1.98-4.12,3.5-8.49,4.56-12.93      c3.64-15.3-1.24-29.98-11.57-41.45c-2.72-3.01-5.66-5.65-9.42-7.28c-3.32-1.44-6.37-1.31-9.8-1.87      c-1.74-0.28-1.69,0.07-3.05-1.42c-0.9-0.99-1.53-2.3-2.44-3.33c-2.21-2.48-4.99-4.42-7.99-5.81      c-11.09-5.15-28.29-4.57-37.21,4.68C669.45,280.38,671.22,282.15,672.34,280.99L672.34,280.99z"/>
			</g>
		</g>
		<g>
			<g>
				<path class="st4" d="M683.35,330.4c0.16,1.41,0.45,2.6,0.27,4.02c-0.08,0.67,0.63,1.25,1.25,1.25c0.75,0,1.17-0.58,1.25-1.25      c0.18-1.41-0.12-2.64-0.27-4.02c-0.08-0.67-0.52-1.25-1.25-1.25C683.99,329.15,683.28,329.73,683.35,330.4L683.35,330.4z"/>
			</g>
		</g>
		<g>
			<g>
				<path class="st4" d="M691.87,337.37c0.17,1.42,0.17,2.75-0.09,4.16c0.29-0.29,0.58-0.58,0.87-0.87      c-2.72,1.03-4.52,3.84-2.87,6.65c1.48,2.52,4.87,2.55,6.88,0.73c1.2-1.08-0.58-2.85-1.77-1.77c-0.95,0.86-2.67,0.79-3.13-0.59      c-0.56-1.7,0.88-1.93,1.85-2.73c1.33-1.09,0.93-4.09,0.75-5.57C694.18,335.79,691.68,335.78,691.87,337.37L691.87,337.37z"/>
			</g>
		</g>
		<g>
			<g>
				<path class="st4" d="M692.29,357.29c3.45,0.69,9.48,0.21,10.64-3.91c0.43-1.55-1.98-2.21-2.41-0.66      c-0.72,2.57-5.59,2.55-7.56,2.16C691.38,354.56,690.71,356.97,692.29,357.29L692.29,357.29z"/>
			</g>
		</g>
		<g>
			<g>
				<path class="st0" d="M708.05,836.12c0,0,8.59-1.96,11.27-5.48c2.68-3.51-1.19-11.55-1.19-11.55s12.7-8.26,18.42-11.33      s7.55-4.69,7.55-4.69l-11.31-19.82c0,0-8.5,8.31-19.52,14.2s-20.96,10.31-20.96,10.31s-0.77-5.12-2.65-5.96      c-1.89-0.85-10.28,5.73-15.66,7.49c-5.38,1.75-14.38,3.96-14.38,3.96s6.98,45.72,10.47,57.88c3.49,12.15,7.27,27.19,16.68,32.82      c9.41,5.63,11.39-1.93,12.75-5.79S708.05,836.12,708.05,836.12z"/>
			</g>
			<g>
				<g>
					<g>
						<path class="st4" d="M720.73,828.06c-2.18,2.93-6.56,4.07-9.92,4.91c-1.65,0.41-2.9,0.48-3.99,1.88        c-2.87,3.67-1.56,11.2-2.34,15.54c-1.46,8.16-2.68,16.35-3.6,24.58c-0.49,4.42-0.9,8.85-1.25,13.28        c-0.34,4.35,0.13,18.4-8.46,14.69c-1.46-0.63-2.74,1.52-1.26,2.16c6.16,2.66,10.15-1.43,11.33-7.45        c0.96-4.85,0.9-9.95,1.35-14.86c0.53-5.89,1.2-11.78,2.02-17.64c0.76-5.35,1.72-10.65,2.61-15.98        c0.53-3.18,0.19-6.42,0.72-9.58c0.78-4.62,4.72-4.28,8.47-5.81c2.52-1.02,4.84-2.26,6.47-4.46        C723.85,828.03,721.68,826.78,720.73,828.06L720.73,828.06z"/>
					</g>
				</g>
				<g>
					<g>
						<path class="st4" d="M688.8,802.72c0.49,2.93,1.07,8.14,3.45,10.32c1.8,1.65,4.66,0.63,6.72,0.01        c1.66-0.5,3.27-1.15,4.84-1.89c2.86-1.35,2.36-1.7,5.92-0.75c3.06,0.81,2.99,0.7,4.4,2.89c1.63,2.54,2.95,5.22,4.02,8.03        c0.56,1.48,2.96,5.72,2.1,7.01c-0.9,1.34,1.27,2.59,2.16,1.26c2.13-3.2-0.92-6.66-2.15-9.73c-1.68-4.18-4.02-9.78-7.65-12.67        c-3.01-2.4-5.65-0.41-8.58,1.06c-2.75,1.37-8.47,4.55-10.68,1.67c-1.45-1.89-1.75-5.6-2.13-7.88        C690.95,800.47,688.54,801.14,688.8,802.72L688.8,802.72z"/>
					</g>
				</g>
				<g>
					<g>
						<path class="st4" d="M720.73,819.37c12.56-10.76,27.3-19.53,40.96-28.79c13.47-9.13,26.83-18.79,40.89-27.01        c1.39-0.81,0.13-2.97-1.26-2.16c-14.38,8.41-28.05,18.29-41.83,27.64c-13.53,9.18-28.09,17.89-40.53,28.55        C717.74,818.65,719.51,820.41,720.73,819.37L720.73,819.37z"/>
					</g>
				</g>
				<g>
					<g>
						<path class="st4" d="M692.41,809.48c9.14-3.56,16.41-11.05,23.1-17.96c9.21-9.52,17.83-19.59,27.46-28.7        c1.17-1.11-0.6-2.87-1.77-1.77c-8.87,8.37-16.88,17.56-25.27,26.4c-6.95,7.33-14.56,15.87-24.19,19.62        C690.27,807.65,690.91,810.06,692.41,809.48L692.41,809.48z"/>
					</g>
				</g>
			</g>
			<g>
				<g>
					<path class="st4" d="M657.96,814c2.52,19.36,3.9,38.95,8.64,57.95c3.15,12.62,8.94,32.63,24.71,33.78c1.61,0.12,1.6-2.38,0-2.5       c-15.74-1.14-20.69-24.33-23.37-36.49c-3.83-17.38-5.2-35.13-7.49-52.74C660.25,812.43,657.75,812.41,657.96,814L657.96,814z"/>
				</g>
			</g>
			<g>
				<g>
					<path class="st4" d="M660.29,814.88c5.37-1.54,10.83-2.94,16.01-5.05c1.9-0.77,3.77-1.64,5.55-2.67       c0.34-0.19,7.05-4.55,7.07-4.04c0.06,1.6,2.56,1.61,2.5,0c-0.19-5.2-5.3-1.96-7.51-0.33c-7.14,5.24-15.9,7.27-24.28,9.68       C658.08,812.91,658.74,815.32,660.29,814.88L660.29,814.88z"/>
				</g>
			</g>
			<g>
				<g>
					<path class="st4" d="M663.8,812.7c0.94,17.86,3.49,35.61,7.81,52.97c2.07,8.31,4.39,16.65,7.42,24.67       c2.21,5.84,5.09,11.15,10.5,14.55c1.37,0.86,2.62-1.3,1.26-2.16c-6.52-4.1-8.95-11.57-11.23-18.53       c-2.47-7.53-4.62-15.18-6.43-22.9c-3.73-15.97-5.97-32.23-6.83-48.61C666.22,811.1,663.72,811.09,663.8,812.7L663.8,812.7z"/>
				</g>
			</g>
			<g>
				<g>
					<path class="st4" d="M699.23,826.67c0.54,1.45,1.17,2.86,1.97,4.19c0.37,0.62,0.77,1.21,1.19,1.79       c0.21,0.29,1.42,1.43,1.41,1.72c0.31-0.4,0.61-0.8,0.92-1.21c-0.06,0.01-0.13,0.03-0.19,0.04c0.41,0.11,0.81,0.21,1.22,0.32       c-0.05-0.05-0.1-0.1-0.15-0.15c0.07,0.5,0.13,1.01,0.2,1.51c0.03-0.04,0.05-0.08,0.08-0.11c0.93-1.32-1.24-2.57-2.16-1.26       c-0.03,0.04-0.05,0.08-0.08,0.11c-0.32,0.45-0.17,1.14,0.2,1.51c0.46,0.48,0.91,0.57,1.56,0.44c0.55-0.11,0.9-0.68,0.92-1.21       c0.05-1.44-1.46-2.54-2.21-3.64c-1.01-1.47-1.82-3.05-2.44-4.72C701.09,824.51,698.67,825.16,699.23,826.67L699.23,826.67z"/>
				</g>
			</g>
			<g>
				<g>
					<path class="st4" d="M696.56,829.04c1.33,3.57,3.17,6.8,5.53,9.78c1,1.26,2.76-0.52,1.77-1.77c-2.08-2.62-3.72-5.54-4.89-8.68       C698.41,826.88,695.99,827.53,696.56,829.04L696.56,829.04z"/>
				</g>
			</g>
			<g>
				<g>
					<path class="st4" d="M694.52,834.49c1.66,4.86,4.02,9.36,7.11,13.46c0.65-0.5,1.31-1.01,1.96-1.51       c-0.3-0.28-0.61-0.56-0.91-0.84c-1.18-1.09-2.95,0.68-1.77,1.77c0.3,0.28,0.61,0.56,0.91,0.84c0.99,0.91,2.86-0.33,1.96-1.51       c-2.96-3.93-5.26-8.2-6.86-12.86C696.41,832.31,693.99,832.96,694.52,834.49L694.52,834.49z"/>
				</g>
			</g>
			<g>
				<g>
					<path class="st4" d="M693.89,844.53c1.22,4.23,3.23,8.05,5.98,11.48c1,1.26,2.76-0.52,1.77-1.77       c-2.47-3.09-4.24-6.58-5.33-10.38C695.86,842.32,693.45,842.98,693.89,844.53L693.89,844.53z"/>
				</g>
			</g>
			<g>
				<g>
					<path class="st4" d="M693.15,853.63c1.34,3.15,3.17,5.99,5.44,8.56c1.07,1.21,2.83-0.57,1.77-1.77       c-2.13-2.4-3.79-5.1-5.05-8.05C694.68,850.89,692.53,852.16,693.15,853.63L693.15,853.63z"/>
				</g>
			</g>
			<g>
				<g>
					<path class="st4" d="M692.71,861.74c1.34,2.3,2.67,4.59,4.01,6.89c0.81,1.39,2.97,0.13,2.16-1.26       c-1.34-2.3-2.67-4.59-4.01-6.89C694.06,859.08,691.9,860.34,692.71,861.74L692.71,861.74z"/>
				</g>
			</g>
		</g>
		<g>
			<g>
				<g>
					<g>
						<path class="st4" d="M791.4,861.79c-0.37,4.02-3.84,7.21-6.42,10c-1.24,1.34-1.86,2.01-1.8,3.93        c0.07,2.22,1.58,4.57,2.64,6.44c2.06,3.64,3.59,7.35,5.18,11.22c2.98,7.28,6.18,14.48,9.63,21.55        c2.56,5.26,16.08,24.59,4.88,26.15c-1.59,0.22-0.91,2.63,0.66,2.41c6.54-0.91,7.43-6.83,5.41-12.24        c-3.5-9.35-9.22-18.12-13.33-27.25c-3.74-8.3-7.03-16.63-11.17-24.72c-1.12-2.19-1.84-3.59-0.32-5.72        c0.92-1.29,2.28-2.35,3.27-3.61c1.9-2.43,3.59-5.02,3.88-8.15C794.05,860.19,791.55,860.2,791.4,861.79L791.4,861.79z"/>
					</g>
				</g>
				<g>
					<g>
						<path class="st4" d="M750.88,857.11c1.95,2.22,5.07,6.17,8.16,6.89c3,0.69,5.29-2.57,6.96-4.66c1.27-1.58,2.35-3.28,3.36-5.03        c2.29-3.97,5.87-2.94,9.37-1.2c3.03,1.5,5.44,3.51,8.21,5.41c1.21,0.83,4.34,1.92,4.21,3.78c-0.11,1.61,2.39,1.6,2.5,0        c0.26-3.71-3.75-4.72-6.25-6.62c-3.78-2.88-8.38-6.02-13.12-7.05c-3.48-0.76-4.96,0.87-6.66,3.69        c-1.44,2.38-3.1,6.27-5.54,7.7c-4.06,2.39-7-1.92-9.43-4.68C751.58,854.13,749.82,855.9,750.88,857.11L750.88,857.11z"/>
					</g>
				</g>
				<g>
					<g>
						<path class="st4" d="M830.06,755.33c-14.36,27.1-26.91,55.45-39.38,83.46c-2.19,4.92-4.64,9.89-6.28,15.04        c-0.49,1.54,1.92,2.19,2.41,0.66c3.85-12.09,10.19-23.75,15.51-35.23c7.45-16.1,15.03-32.14,22.73-48.11        c2.35-4.87,4.64-9.78,7.17-14.56C832.97,755.17,830.81,753.91,830.06,755.33L830.06,755.33z"/>
					</g>
				</g>
				<g>
					<g>
						<path class="st4" d="M757.71,860.76c7.83-10.35,9.65-25.09,12.05-37.45c3.01-15.57,5.41-31.97,12.57-46.3        c0.72-1.44-1.44-2.7-2.16-1.26c-6.85,13.71-9.42,29.2-12.29,44.12c-2.49,12.97-4.12,28.78-12.33,39.63        C754.58,860.79,756.75,862.03,757.71,860.76L757.71,860.76z"/>
					</g>
				</g>
			</g>
			<g>
				<g>
					<path class="st4" d="M730.84,883.23c12.45,15.24,24.05,31.31,38.29,44.98c9.28,8.91,24.44,22.33,38.23,15.13       c1.43-0.74,0.16-2.9-1.26-2.16c-14.22,7.42-30.92-10.14-39.68-19.22c-12.24-12.68-22.68-26.88-33.81-40.5       C731.59,880.21,729.83,881.99,730.84,883.23L730.84,883.23z"/>
				</g>
			</g>
			<g>
				<g>
					<path class="st4" d="M733.07,882.55c3.45-3.81,7.01-7.56,10.12-11.65c1.52-1.99,2.94-4.06,4.13-6.27       c0.45-0.83,3.69-7.52,3.88-7.24c0.89,1.33,3.06,0.08,2.16-1.26c-2.66-3.94-5.28,0.32-6.3,2.99       c-3.26,8.52-9.75,15.02-15.76,21.67C730.23,881.97,731.99,883.75,733.07,882.55L733.07,882.55z"/>
				</g>
			</g>
			<g>
				<g>
					<path class="st4" d="M734.92,878.78c9.84,14.15,20.9,27.41,33.17,39.51c6.24,6.16,12.76,12.12,19.64,17.57       c5.24,4.15,10.8,7.63,17.66,7.7c1.61,0.02,1.61-2.48,0-2.5c-8.51-0.08-15.07-6.14-21.19-11.36       c-5.84-4.98-11.46-10.21-16.85-15.67c-11.14-11.27-21.23-23.5-30.28-36.5C736.17,876.21,734,877.46,734.92,878.78       L734.92,878.78z"/>
				</g>
			</g>
			<g>
				<g>
					<path class="st4" d="M772.37,871.96c1.23,0.95,2.49,1.82,3.87,2.53c0.57,0.3,1.16,0.56,1.76,0.81c0.3,0.13,2.19,0.56,2.33,0.8       c0.07-0.5,0.13-1.01,0.2-1.51c-0.05,0.04-0.09,0.09-0.14,0.13c0.41-0.11,0.81-0.21,1.22-0.32c-0.07-0.02-0.14-0.03-0.21-0.05       c0.31,0.4,0.61,0.8,0.92,1.21c0-0.05,0.01-0.09,0.01-0.14c0.1-1.61-2.4-1.6-2.5,0c0,0.05-0.01,0.09-0.01,0.14       c-0.03,0.53,0.41,1.08,0.92,1.21c0.64,0.16,1.09,0.05,1.56-0.4c0.4-0.38,0.47-1.04,0.2-1.51c-0.71-1.24-2.44-1.37-3.67-1.89       c-1.66-0.71-3.24-1.65-4.68-2.75C772.88,869.22,771.1,870.97,772.37,871.96L772.37,871.96z"/>
				</g>
			</g>
			<g>
				<g>
					<path class="st4" d="M771.35,875.38c3.01,2.33,6.27,4.13,9.85,5.41c1.52,0.54,2.17-1.87,0.66-2.41       c-3.15-1.13-6.1-2.72-8.75-4.77C771.86,872.64,770.08,874.39,771.35,875.38L771.35,875.38z"/>
				</g>
			</g>
			<g>
				<g>
					<path class="st4" d="M772.49,881.08c4.07,3.32,8.53,5.92,13.43,7.82c0.22-0.8,0.44-1.61,0.66-2.41       c-0.41-0.08-0.81-0.15-1.22-0.23c-1.57-0.3-2.25,2.11-0.66,2.41c0.41,0.08,0.81,0.15,1.22,0.23c1.6,0.3,2.16-1.83,0.66-2.41       c-4.48-1.73-8.61-4.14-12.33-7.17C773.02,878.31,771.24,880.06,772.49,881.08L772.49,881.08z"/>
				</g>
			</g>
			<g>
				<g>
					<path class="st4" d="M777.26,889.94c3.26,2.95,6.98,5.16,11.12,6.63c1.52,0.54,2.17-1.88,0.66-2.41       c-3.73-1.32-7.09-3.33-10.02-5.98C777.84,887.1,776.06,888.86,777.26,889.94L777.26,889.94z"/>
				</g>
			</g>
			<g>
				<g>
					<path class="st4" d="M781.42,898.07c2.8,1.96,5.86,3.43,9.13,4.41c1.54,0.46,2.2-1.95,0.66-2.41c-3.08-0.92-5.9-2.31-8.54-4.16       C781.36,894.98,780.11,897.15,781.42,898.07L781.42,898.07z"/>
				</g>
			</g>
			<g>
				<g>
					<path class="st4" d="M785.32,905.19c2.35,1.25,4.69,2.49,7.04,3.74c1.42,0.75,2.68-1.4,1.26-2.16       c-2.35-1.25-4.69-2.49-7.04-3.74C785.16,902.28,783.9,904.44,785.32,905.19L785.32,905.19z"/>
				</g>
			</g>
		</g>
		<g>
			<g>
				<path class="st4" d="M638.96,314.43c-5.24,6.58-8.83,14.18-10.26,22.5c-1.45,8.44-0.22,16.02,1.86,24.19      c3.42,13.41-14.42,15.73-22.85,21.02c-6.3,3.95-11.29,9.81-14.52,16.48c-14.96,30.92,9.9,64.47,41.28,69.82      c17.58,2.99,35.85-1.78,49.61-13.11c1.24-1.02-0.53-2.78-1.77-1.77c-25.43,20.93-66.58,16.66-84.31-12.17      c-8.64-14.05-9.2-31.87-0.19-45.92c4.67-7.28,11.32-11.77,19.1-15.23c5.77-2.56,13.78-4.97,16.25-11.52      c1.26-3.34,0.25-6.68-0.69-9.96c-1.36-4.74-2.13-9.53-2.01-14.48c0.24-10.24,3.89-20.1,10.26-28.1      C641.72,314.95,639.96,313.17,638.96,314.43L638.96,314.43z"/>
			</g>
		</g>
		<g>
			<g>
				<path class="st4" d="M692.32,370.29c0.06,2.04,0.76,5.34-0.2,7.13c-0.81,1.5-3.59,2.48-5.26,2.2c-1.57-0.26-2.25,2.15-0.66,2.41      c2.42,0.4,5.48-0.54,7.35-2.15c2.5-2.15,1.37-6.7,1.27-9.59C694.77,368.69,692.27,368.68,692.32,370.29L692.32,370.29z"/>
			</g>
		</g>
		<g>
			<g>
				<path class="st3" d="M717.67,339.5c6.66-3.58,11.8,4.39,9.14,10.19c-1.84,4.01-7.55,6.11-11.04,2.91      c-1.18-1.09-2.96,0.68-1.77,1.77c5.4,4.95,13.64,1.24,15.7-5.22c2.54-7.96-5.61-15.93-13.3-11.8      C714.99,338.1,716.25,340.26,717.67,339.5L717.67,339.5z"/>
			</g>
		</g>
		<g>
			<g>
				<path class="st4" d="M713.12,451.99c7.56,0.2,14.85-0.96,21.98-3.5c1.5-0.54,0.86-2.95-0.66-2.41      c-6.91,2.47-13.98,3.61-21.31,3.42C711.51,449.45,711.51,451.95,713.12,451.99L713.12,451.99z"/>
			</g>
		</g>
		<g>
			<g>
				<path class="st4" d="M757.1,444.2c5.23,0.7,10.28-0.09,15.12-2.17c1.47-0.63,0.2-2.79-1.26-2.16c-4.42,1.9-9.1,2.46-13.86,1.82      C755.52,441.49,755.53,444,757.1,444.2L757.1,444.2z"/>
			</g>
		</g>
		<g>
			<g>
				<path class="st4" d="M717.22,513.85c7.1,7.65,15.26,14.02,24.4,19.06c0.32-0.76,0.64-1.52,0.96-2.28      c-1.9-0.8-3.67-1.68-5.47-2.67c-1.41-0.78-2.67,1.38-1.26,2.16c1.98,1.09,3.99,2.04,6.07,2.92c1.31,0.55,2.18-1.61,0.96-2.28      c-8.96-4.93-16.94-11.16-23.9-18.67C717.89,510.9,716.12,512.67,717.22,513.85L717.22,513.85z"/>
			</g>
		</g>
		<g>
			<g>
				<path class="st4" d="M718.83,523.5c-0.05,0.12-0.09,0.23-0.14,0.35c0.51-0.29,1.03-0.58,1.54-0.87      c-0.14-0.03-0.28-0.07-0.43-0.1c0.29,0.51,0.58,1.03,0.87,1.54c-0.61,2.31,6.39,6.95,8.12,8.39c2.67,2.21,5.43,4.32,8.27,6.31      c6.44,4.51,13.28,8.34,20.43,11.61c1.45,0.66,2.72-1.49,1.26-2.16c-9.85-4.51-19.14-10.14-27.54-17      c-1.59-1.3-11.61-12.94-12.95-7.82c-0.17,0.64,0.21,1.38,0.87,1.54c0.14,0.03,0.28,0.07,0.43,0.1c0.71,0.17,1.28-0.23,1.54-0.87      c0.05-0.12,0.09-0.23,0.14-0.35C721.84,522.67,719.42,522.02,718.83,523.5L718.83,523.5z"/>
			</g>
		</g>
		<g>
			<g>
				<path class="st4" d="M750.59,654.36c15.65,30.05,39.44,55.27,68.51,72.67c1.38,0.83,2.64-1.33,1.26-2.16      c-28.73-17.19-52.15-42.07-67.61-71.77C752.01,651.67,749.85,652.93,750.59,654.36L750.59,654.36z"/>
			</g>
		</g>
		<g>
			<g>
				<path class="st4" d="M778.21,708.06c8.08,14.41,17.63,27.85,28.56,40.24c1.07,1.21,2.83-0.56,1.77-1.77      c-10.79-12.23-20.19-25.51-28.17-39.73C779.58,705.4,777.42,706.66,778.21,708.06L778.21,708.06z"/>
			</g>
		</g>
		<g>
			<circle class="st4" cx="726.9" cy="751.99" r="2.33"/>
		</g>
		<g>
			<circle class="st4" cx="744.63" cy="717.16" r="2.33"/>
		</g>
		<g>
			<circle class="st4" cx="765.51" cy="637.45" r="2.33"/>
		</g>
		<g>
			<circle class="st4" cx="781.42" cy="590.44" r="2.33"/>
		</g>
		<g>
			<circle class="st4" cx="787.55" cy="552.02" r="2.33"/>
		</g>
		<g>
			<circle class="st4" cx="815.57" cy="574.5" r="2.33"/>
		</g>
		<g>
			<circle class="st4" cx="741.37" cy="594.51" r="2.33"/>
		</g>
		<g>
			<circle class="st4" cx="745.07" cy="557.57" r="2.33"/>
		</g>
		<g>
			<circle class="st4" cx="764.12" cy="519.72" r="2.33"/>
		</g>
		<g>
			<circle class="st4" cx="779.28" cy="488.99" r="2.33"/>
		</g>
		<g>
			<circle class="st4" cx="738.48" cy="484.52" r="2.33"/>
		</g>
		<g>
			<circle class="st4" cx="764.25" cy="455.92" r="2.33"/>
		</g>
		<g>
			<circle class="st4" cx="732.44" cy="428.54" r="2.33"/>
		</g>
		<g>
			<circle class="st4" cx="698.61" cy="417.26" r="2.33"/>
		</g>
		<g>
			<circle class="st4" cx="716.74" cy="538.48" r="2.33"/>
		</g>
		<g>
			<circle class="st4" cx="792.17" cy="619.14" r="2.33"/>
		</g>
		<g>
			<circle class="st4" cx="804.93" cy="688.72" r="2.33"/>
		</g>
		<g>
			<circle class="st4" cx="763.82" cy="737.57" r="2.33"/>
		</g>
		<g>
			<circle class="st4" cx="764.79" cy="689.92" r="2.33"/>
		</g>
		<g>
			<circle class="st4" cx="822.51" cy="609.49" r="2.33"/>
		</g>
		<g>
			<circle class="st4" cx="800.96" cy="656.34" r="2.33"/>
		</g>
		<g>
			<circle class="st4" cx="847.98" cy="667.19" r="2.33"/>
		</g>
		<g>
			<circle class="st4" cx="790.91" cy="750.87" r="2.33"/>
		</g>
		<g>
			<circle class="st4" cx="812.43" cy="731.76" r="2.33"/>
		</g>
		<g>
			<circle class="st4" cx="845.08" cy="703.71" r="2.33"/>
		</g>
		<g>
			<g>
				<path class="st4" d="M634.38,376.86c-1.15,3.86-5.79,5.64-9.05,7.38c-3,1.61-6.03,3.15-8.96,4.88      c-4.63,2.75-9.05,5.97-12.42,10.22c-7.11,8.96-6.79,19.58-0.72,29.01c0.87,1.35,3.03,0.1,2.16-1.26      c-8.29-12.87-3.21-25.43,8.66-33.54c4.68-3.2,9.83-5.63,14.78-8.37c3.44-1.9,6.77-3.7,7.95-7.66      C637.25,375.98,634.84,375.32,634.38,376.86L634.38,376.86z"/>
			</g>
		</g>
		<g>
			<g>
				<path class="st4" d="M704.39,294.09c-4.68,2.17-6.75,6.38-9.18,10.67c-4.17,7.36-11.46,12.86-20.23,9.55      c-1.51-0.57-2.16,1.85-0.66,2.41c6.06,2.28,12.32,0.9,17.22-3.28c5.7-4.87,7.14-13.96,14.11-17.2      C707.11,295.58,705.84,293.42,704.39,294.09L704.39,294.09z"/>
			</g>
		</g>
		<g>
			<g>
				<path class="st4" d="M722.19,296.53c10.6,1.2,17.04,17.9,17.3,27c0.05,1.61,2.55,1.61,2.5,0c-0.31-10.86-7.49-28.11-19.8-29.5      C720.59,293.85,720.61,296.35,722.19,296.53L722.19,296.53z"/>
			</g>
		</g>
		<g>
			<g>
				<path class="st4" d="M688.44,93.59c0.37,9.87-0.43,19.59-2.45,29.27c-0.33,1.57,2.08,2.24,2.41,0.66      c2.06-9.88,2.92-19.85,2.54-29.93C690.88,91.99,688.38,91.98,688.44,93.59L688.44,93.59z"/>
			</g>
		</g>
	</g>
	<g>
		<g>
			
				<ellipse transform="matrix(0.9392 -0.3433 0.3433 0.9392 -81.9691 171.5345)" class="st1" cx="443.47" cy="317.27" rx="3.11" ry="4.74"/>
		</g>
		<g>
			<path class="st1" d="M410.32,469.93c0,0-82.89,151.88-87.7,161.24c-4.81,9.36-28.61,60.97-35.56,78.88s-41.71,98.67-41.71,98.67     s12.3,7.22,32.09,12.3c19.79,5.08,41.71,4.81,41.71,4.81s18.45-46.26,29.95-68.18c11.5-21.93,23.26-55.62,28.61-67.92     s23.26-28.34,23.26-28.34l39.57,169.26c0,0,15.24,8.02,31.55,2.41c16.31-5.62,22.46-11.23,22.73-16.58     s-21.12-138.51-21.39-142.25c-0.27-3.74,0.8-5.35,3.74-11.5s36.37-66.85,39.04-72.73c2.67-5.88,14.17-29.68,18.45-45.99     c4.28-16.31,7.49-43.32,7.22-50.8c-0.27-7.49-0.53-9.36-0.53-9.36s-43.05,1.07-77.28-4.55S410.32,469.93,410.32,469.93z"/>
		</g>
		<g>
			<g>
				<path class="st4" d="M480.5,333.19c-30.32,3.7-59.4,12.99-88.22,22.74c-0.63,0.21-1.08,0.86-0.87,1.54      c2.17,7.1,13.81,3.21,18.64,2.47c3.07-0.47,6.14-0.96,9.21-1.4c5.38-0.78,7.92,1.87,11.04,5.55c3.36,3.97,6.93,7.92,11.42,10.63      c7.75,4.68,15.97,4.26,23.13-1.14c4.3-3.24,8-7.04,13.29-8.63c5.94-1.78,12.53-1.17,18.66-1.54c1.6-0.09,1.61-2.6,0-2.5      c-8.43,0.5-17.65-0.5-25.11,4.22c-3.51,2.22-6.4,5.27-9.85,7.56c-5.48,3.64-11.71,3.64-17.47,0.64      c-4.68-2.44-8.35-6.4-11.74-10.36c-2.21-2.59-4.4-6.31-7.94-7.22c-3.9-1.01-9.63,0.9-13.46,1.48      c-3.43,0.52-15.94,4.37-17.41-0.45c-0.29,0.51-0.58,1.03-0.87,1.54c28.6-9.67,57.48-18.97,87.56-22.65      C482.08,335.5,482.09,333,480.5,333.19L480.5,333.19z"/>
			</g>
		</g>
		<g>
			<g>
				<path class="st4" d="M480.38,335.56c26.38-1.98,52.81-2.77,79.26-2.37c1.61,0.02,1.61-2.48,0-2.5      c-26.45-0.4-52.89,0.39-79.26,2.37C478.78,333.18,478.77,335.68,480.38,335.56L480.38,335.56z"/>
			</g>
		</g>
		<g>
			<g>
				<path class="st4" d="M495.94,363.49c21.95,1.28,44.05,2.27,66.05,1.71c19.02-0.48,38.16-3.01,55.19-12      c0.64-0.34,0.71-1.12,0.45-1.71c-11.02-24.74-36.38-41.51-63.71-39.85c-1.6,0.1-1.61,2.6,0,2.5      c26.54-1.62,50.86,14.61,61.55,38.61c0.15-0.57,0.3-1.14,0.45-1.71c-17.7,9.34-37.71,11.45-57.43,11.72      c-20.84,0.29-41.74-0.57-62.54-1.78C494.34,360.9,494.34,363.4,495.94,363.49L495.94,363.49z"/>
			</g>
		</g>
		<g>
			<g>
				<path class="st4" d="M497.72,296.13c5.51,0.07,10.5,2.52,15.61,4.31c5.68,1.99,11.45,3.78,17.29,5.21      c11.15,2.74,22.55,4.04,34,2.79c-0.11-0.82-0.22-1.64-0.33-2.46c-11.83,4.48-21.39,12.88-27.21,24.13      c-0.74,1.43,1.42,2.69,2.16,1.26c5.51-10.64,14.49-18.74,25.71-22.98c1.21-0.46,1.18-2.62-0.33-2.46      c-12.52,1.36-24.92-0.36-37.02-3.66c-5.37-1.46-10.69-3.16-15.92-5.08c-4.58-1.68-9.02-3.51-13.96-3.58      C496.11,293.61,496.11,296.11,497.72,296.13L497.72,296.13z"/>
			</g>
		</g>
		<g>
			<g>
				<path class="st4" d="M367.18,235.37c-10.05,20.72-20.65,42.01-39.21,56.45c-0.42,0.33-0.46,1.09-0.2,1.51      c13.18,21.25,37.63,31.01,53.7,49.54c1.06,1.22,2.82-0.56,1.77-1.77c-14.99-17.28-37.47-26.66-50.92-45.39      c-0.77-1.07-1.67-1.83-1.31-3.12c0.22-0.8,2.48-2.06,3.09-2.59c2.21-1.95,4.31-4.01,6.3-6.18c4.07-4.42,7.72-9.23,11.04-14.24      c6.93-10.43,12.44-21.71,17.9-32.95C370.04,235.19,367.89,233.93,367.18,235.37L367.18,235.37z"/>
			</g>
		</g>
		<g>
			<g>
				<path class="st4" d="M369.67,331.38c7.92,45.01,26.94,88.8,24.87,135.19c-0.02,0.52,0.4,1.09,0.92,1.21      c29.37,6.38,59.03,11.67,88.87,15.34c29,3.57,58.52,4.84,87.21-1.69c1.57-0.36,0.9-2.77-0.66-2.41      c-41.62,9.46-85.12,2.67-126.58-4.33c-10.32-1.74-20.62-3.65-30.88-5.7c-4.51-0.9-10.19-1.19-14.41-3      c-2.62-1.12-1.8-2.96-1.78-5.61c0.02-2.67-0.03-5.33-0.14-7.99c-0.83-19.24-4.86-38.19-9.48-56.82      c-5.35-21.57-11.65-42.93-15.51-64.84C371.81,329.13,369.4,329.8,369.67,331.38L369.67,331.38z"/>
			</g>
		</g>
		<g>
			<g>
				<path class="st4" d="M527.43,365.08c3.24,18.74,10.51,36.88,17.93,54.3c8.63,20.26,16.27,41.04,25.46,61.06      c0.67,1.46,2.83,0.19,2.16-1.26c-8.99-19.57-16.39-39.91-24.89-59.71c-7.57-17.64-14.96-36.05-18.25-55.05      C529.56,362.83,527.16,363.5,527.43,365.08L527.43,365.08z"/>
			</g>
		</g>
		<g>
			<g>
				<path class="st4" d="M442.9,286.07c2.88,9.79,13.32,13.63,22.53,15.03c11.21,1.71,23.29,0.58,33.18-5.34      c7.23-4.32,14.16-10.79,18.21-18.22c5.18-9.49,4.57-19.95,0.74-29.82c-0.58-1.48-2.99-0.84-2.41,0.66      c3.5,9.04,4.35,18.54-0.21,27.37c-3.38,6.54-9.09,11.91-15.03,16.15c-8.32,5.94-18.65,7.92-28.72,7.3      c-9.53-0.58-22.78-3.27-25.89-13.81C444.86,283.87,442.45,284.52,442.9,286.07L442.9,286.07z"/>
			</g>
		</g>
		<g>
			<g>
				<path class="st4" d="M435.06,254.99c-0.28-7.54,10.95-11.15,16.63-12.01c8.39-1.27,16.26,0.72,22.56,6.54      c0.6,0.55,1.53,0.45,1.96-0.25c2.77-4.46,9.97,4.22,13.05,5.68c3.1,1.47,6.6,2.12,10.03,2.11c6.79-0.01,13.64-2.55,17.62-8.24      c0.92-1.32-1.24-2.57-2.16-1.26c-5.36,7.67-17.99,9.09-25.74,4.42c-4.01-2.42-10.49-11.16-14.96-3.97      c0.65-0.08,1.31-0.17,1.96-0.25c-7.38-6.81-16.7-8.79-26.44-6.94c-6.54,1.24-17.33,5.99-17.03,14.17      C432.62,256.6,435.12,256.6,435.06,254.99L435.06,254.99z"/>
			</g>
		</g>
		<g>
			<g>
				<path class="st4" d="M433.46,253.77c-8.58-2.55-14.63,7.45-15.19,14.8c-0.54,7.14,2.78,14.7,4.58,21.49      c0.27,1.03,1.76,1.23,2.28,0.3c1.98-3.49,6.77,2.89,7.54,4.15c1.44,2.35,2.38,5.04,3.42,7.58c0.53,1.29,2.34,1.14,2.46-0.33      c0.46-5.84,2.41-11.09,6.17-15.59c1.03-1.23-0.73-3-1.77-1.77c-4.25,5.08-6.39,10.78-6.9,17.35c0.82-0.11,1.64-0.22,2.46-0.33      c-1.84-4.51-3.52-9.66-7.58-12.7c-2.27-1.7-6.24-2.63-7.94,0.38c0.76,0.1,1.52,0.2,2.28,0.3c-1.3-4.9-2.88-9.74-3.87-14.71      c-1.33-6.71,1.28-21.51,11.41-18.5C434.34,256.64,435,254.23,433.46,253.77L433.46,253.77z"/>
			</g>
		</g>
		<g>
			<g>
				<path class="st4" d="M429.27,287.44c-6.52-3.6-7.12,5.95-6.6,9.93c0.6,4.61,2.44,15.35,9.03,14.32c-0.53-0.4-1.05-0.8-1.58-1.21      c-0.23,10.36,2.88,26.89,14.28,30.79c1.53,0.52,2.18-1.89,0.66-2.41c-10.17-3.47-12.65-19.32-12.45-28.38      c0.02-0.89-0.81-1.33-1.58-1.21c-3.1,0.48-4.55-6.1-5.06-8.03c-0.22-0.82-2.44-14.13,2.04-11.65      C429.42,290.38,430.68,288.22,429.27,287.44L429.27,287.44z"/>
			</g>
		</g>
		<g>
			<g>
				<path class="st4" d="M487.66,299.28c-1.78,11.7-6.15,23.92-12.73,33.79c-0.9,1.34,1.27,2.59,2.16,1.26      c6.68-10.01,11.18-22.53,12.99-34.38C490.31,298.37,487.9,297.69,487.66,299.28L487.66,299.28z"/>
			</g>
		</g>
		<g>
			<g>
				<path class="st4" d="M453.52,309.32c0.01-0.14,0.01-0.27,0.02-0.41c0.07-1.38-2.21-1.73-2.46-0.33      c-0.31,1.8-0.44,3.61-0.36,5.44c0.08,1.6,2.58,1.61,2.5,0c-0.08-1.6-0.01-3.19,0.27-4.77c-0.82-0.11-1.64-0.22-2.46-0.33      c-0.01,0.14-0.01,0.27-0.02,0.41C450.94,310.93,453.44,310.93,453.52,309.32L453.52,309.32z"/>
			</g>
		</g>
		<g>
			<g>
				<path class="st4" d="M474.6,309.71c-0.8,1.55-1.37,3.18-1.68,4.9c-0.28,1.57,2.13,2.25,2.41,0.66c0.27-1.51,0.72-2.94,1.43-4.3      C477.49,309.54,475.33,308.27,474.6,309.71L474.6,309.71z"/>
			</g>
		</g>
		<g>
			<g>
				<path class="st4" d="M464.85,315.2c-0.68,1.7-1.14,3.42-1.39,5.24c-0.1,0.67,0.15,1.34,0.87,1.54c0.63,0.17-0.26,3.96-2.1,2.09      c-1.13-1.15-2.9,0.62-1.77,1.77c1.64,1.67,4.44,1.51,5.8-0.45c1.19-1.71,1.06-5.17-1.27-5.82c0.29,0.51,0.58,1.03,0.87,1.54      c0.26-1.81,0.72-3.54,1.39-5.24C467.85,314.37,465.44,313.72,464.85,315.2L464.85,315.2z"/>
			</g>
		</g>
		<g>
			<g>
				<path class="st4" d="M451.05,326.65c-0.6,3.14,0.82,6.36,3.69,7.86c1.42,0.75,2.69-1.41,1.26-2.16      c-1.83-0.96-2.93-2.97-2.54-5.04C453.76,325.74,451.36,325.07,451.05,326.65L451.05,326.65z"/>
			</g>
		</g>
		<g>
			<g>
				<path class="st4" d="M202.67,145.62c3.27,6.32,11.23,10.6,16.67,14.94c5.82,4.64,11.65,9.69,18.58,12.61      c2.8,1.18,5.76,1.3,8.56,2.23c5.88,1.95,8.37,8.26,11.47,13.05c4.66,7.2,9.38,14.39,14.36,21.37c4.42,6.19,9.24,12,15.08,16.9      c6.18,5.19,12.96,9.63,19.3,14.62c13.09,10.3,25.23,21.74,36.39,34.1c1.08,1.2,2.84-0.58,1.77-1.77      c-10.76-11.92-22.43-22.99-34.99-32.99c-6.34-5.05-13.08-9.57-19.38-14.65c-6.72-5.42-12.11-11.91-17.06-18.96      c-4.95-7.05-9.69-14.26-14.36-21.51c-3.24-5.04-5.4-11.41-11.74-12.58c-9.32-1.72-15.93-6.04-23.28-11.85      c-3.44-2.72-6.85-5.46-10.28-8.19c-3.19-2.54-7.03-4.89-8.94-8.58C204.09,142.93,201.94,144.19,202.67,145.62L202.67,145.62z"/>
			</g>
		</g>
		<g>
			<g>
				<path class="st4" d="M191.46,102.6c9.78,7.98,20.21,13.9,31.99,18.36c7.13,2.7,14.35,5.53,20.5,10.13      c6.13,4.58,10.29,10.87,14.04,17.45c6.97,12.21,14.17,22.48,25.19,31.45c11.6,9.44,24,18,36.13,26.72      c15.14,10.89,30.5,21.49,46.35,31.33c1.37,0.85,2.63-1.31,1.26-2.16c-26.93-16.71-53-35.29-78.12-54.62      c-5.73-4.41-11.29-9.11-16.07-14.57c-4.97-5.67-8.5-12.21-12.19-18.72c-6.51-11.47-14.15-19.82-26.32-25.33      c-7.26-3.29-15-5.48-22.09-9.14c-6.76-3.49-13.02-7.87-18.91-12.67C191.99,99.82,190.21,101.58,191.46,102.6L191.46,102.6z"/>
			</g>
		</g>
		<g>
			<g>
				<path class="st4" d="M368.35,236.91c9.35,6.74,18.63,13.65,28.65,19.37c4.28,2.44,8.57,4.41,12.48,7.44      c3.02,2.34,5.88,4.91,9.09,6.99c1.35,0.88,2.61-1.29,1.26-2.16c-3.5-2.27-6.59-5.13-9.92-7.64c-3.64-2.75-7.71-4.55-11.65-6.8      c-10.02-5.73-19.3-12.64-28.65-19.37C368.3,233.81,367.05,235.97,368.35,236.91L368.35,236.91z"/>
			</g>
		</g>
		<g>
			<g>
				<path class="st4" d="M205.31,145.91c4.21-2.37,8.79,0.18,12.68,1.91c3.33,1.48,6.67,2.96,10,4.45c1.46,0.65,2.73-1.51,1.26-2.16      c-4.82-2.14-9.6-4.53-14.54-6.4c-3.65-1.38-7.18-1.92-10.67,0.04C202.64,144.54,203.9,146.7,205.31,145.91L205.31,145.91z"/>
			</g>
		</g>
		<g>
			<g>
				<path class="st4" d="M190.45,101.49c-2.66,10.51,6,15.07,13.39,19.97c5.24,3.48,10.56,6.93,15.44,10.91      c2.53,2.07,4.84,4.26,6.72,6.96c0.59,0.85,6.49,11.33,2.97,10.51c-1.57-0.37-2.23,2.04-0.66,2.41c3.21,0.75,5.14-2.66,4.6-5.59      c-0.6-3.24-3.8-7.45-5.78-10.02c-2-2.61-4.43-4.75-7-6.78c-5.12-4.05-10.6-7.64-16.04-11.24c-6.04-4-13.44-7.74-11.23-16.47      C193.26,100.6,190.85,99.93,190.45,101.49L190.45,101.49z"/>
			</g>
		</g>
		<g>
			<g>
				<path class="st4" d="M198.53,116.42c-2.03,0.92-2.65,2.97-2.32,5.12c0.48,3.11,3.2,4.47,5.61,6.12      c7.64,5.25,17.09,10.66,19.56,20.4c0.4,1.56,2.81,0.9,2.41-0.66c-1.31-5.13-5.01-9.87-8.84-13.44      c-1.96-1.83-4.28-3.23-6.49-4.75c-1.67-1.15-13.98-8.23-8.67-10.63C201.25,117.92,199.98,115.76,198.53,116.42L198.53,116.42z"/>
			</g>
		</g>
		<g>
			<g>
				<path class="st4" d="M409.21,469.85c-22.41,39.99-43.33,80.72-65.74,120.72c-11.99,21.4-24.02,42.88-33.94,65.33      c-10.44,23.61-20.39,47.44-30.56,71.17c-11.52,26.87-23.04,53.73-34.55,80.6c-0.25,0.59-0.21,1.38,0.45,1.71      c22.92,11.56,48.07,17.64,73.74,17.79c1.61,0.01,1.61-2.49,0-2.5c-25.23-0.15-49.95-6.09-72.48-17.45      c0.15,0.57,0.3,1.14,0.45,1.71c20.41-47.6,40.76-95.23,61.23-142.81c19.4-45.12,45.85-86.61,68.54-130.08      c11.4-21.84,22.98-43.43,35.03-64.93C412.16,469.71,410,468.45,409.21,469.85L409.21,469.85z"/>
			</g>
		</g>
		<g>
			<g>
				<path class="st4" d="M398.94,661.1c-11.05,7.41-18.4,18.17-22.86,30.57c-5.28,14.71-10.56,29.05-17.29,43.2      c-14.15,29.73-31.3,58.72-40.43,90.55c-0.44,1.55,1.97,2.21,2.41,0.66c8.91-31.09,25.57-59.45,39.46-88.46      c6.34-13.24,12.25-26.66,16.72-40.66c4.34-13.58,11.14-25.6,23.24-33.71C401.53,662.37,400.28,660.2,398.94,661.1L398.94,661.1z      "/>
			</g>
		</g>
		<g>
			<g>
				<path class="st4" d="M308.67,668.81c2.81,8.1,5.61,16.2,8.42,24.29c0.47,1.35,2.35,1.09,2.46-0.33      c0.59-8.41,0.23-16.71-1.04-25.04c-0.21-1.4-2.51-1.06-2.46,0.33c0.32,8.7,3.69,16.54,9.79,22.75c1.13,1.15,2.9-0.62,1.77-1.77      c-5.64-5.74-8.76-12.94-9.06-20.98c-0.82,0.11-1.64,0.22-2.46,0.33c1.23,8.1,1.53,16.2,0.95,24.37      c0.82-0.11,1.64-0.22,2.46-0.33c-2.81-8.1-5.61-16.2-8.42-24.29C310.55,666.63,308.14,667.28,308.67,668.81L308.67,668.81z"/>
			</g>
		</g>
		<g>
			<g>
				<path class="st4" d="M540.46,484.9c0.46,18.31-0.56,36.7-5.24,54.48c-3.55,13.51-8.99,26.55-15.08,39.1      c-11.77,24.26-26.3,47.1-38.63,71.08c-2.49,4.84-4.94,9.73-6.96,14.78c-1.09,2.73-2.53,5.97-2.02,8.98      c0.27,1.58,2.68,0.91,2.41-0.66c-0.44-2.59,1.35-6.01,2.29-8.32c2.1-5.1,4.63-10.04,7.17-14.94      c6.44-12.4,13.37-24.55,20.19-36.74c12.57-22.46,25.37-45.24,32.38-70.18c5.26-18.74,6.48-38.2,5.99-57.59      C542.92,483.3,540.42,483.29,540.46,484.9L540.46,484.9z"/>
			</g>
		</g>
		<g>
			<g>
				<path class="st4" d="M471.89,671.71c5.14,36.18,10.61,72.32,16.43,108.4c1.42,8.78,2.85,17.55,4.31,26.32      c0.95,5.7,2.58,10.78-1.95,15.28c-2.39,2.38-5.39,4.25-8.4,5.75c-12.46,6.25-28.18,7.19-41.41,3.01      c-1.54-0.49-2.2,1.93-0.66,2.41c13.09,4.13,28.23,3.33,40.84-2.11c5.28-2.28,12.84-6.31,14.89-12.15      c1.02-2.91,0.23-6.03-0.25-8.97c-0.8-4.87-1.62-9.74-2.42-14.62c-6.78-41.26-13.09-82.6-18.97-124      C474.08,669.46,471.67,670.13,471.89,671.71L471.89,671.71z"/>
			</g>
		</g>
		<g>
			<g>
				<path class="st4" d="M399.53,669.99c13.06,53.91,26.77,107.67,39.83,161.58c0.32,1.34,2.62,1.09,2.46-0.33      c-0.14-1.21-0.28-2.41-0.42-3.62c-0.18-1.58-2.69-1.6-2.5,0c0.14,1.21,0.28,2.41,0.42,3.62c0.82-0.11,1.64-0.22,2.46-0.33      c-13.06-53.92-26.77-107.67-39.83-161.58C401.56,667.76,399.15,668.42,399.53,669.99L399.53,669.99z"/>
			</g>
		</g>
		<g>
			<g>
				<path class="st4" d="M453.11,858.76c3.58,0.9,4.79-2.18,5.56-5.11c0.63-2.38,0.8-5.15,2.08-7.31c2.06-3.46,5.71-4,9.37-4.35      c2.39-0.22,4.79-0.19,7.18,0.08c3.86,0.43,5.87,1.16,7.3,5.05c1.56,4.27,2.41,8.95,2.96,13.46c0.19,1.58,2.69,1.6,2.5,0      c-0.6-4.93-1.48-10.01-3.25-14.66c-2.01-5.29-5.2-6.02-10.63-6.45c-4.59-0.36-10.87-0.46-14.72,2.45      c-2.06,1.56-3.28,3.59-4.02,6.02c-0.5,1.64-1.11,9.05-3.67,8.4C452.22,855.95,451.55,858.36,453.11,858.76L453.11,858.76z"/>
			</g>
		</g>
		<g>
			<g>
				<path class="st4" d="M449.38,834.3c-0.6,5.91-0.36,12-0.36,17.94c0,1.61,2.5,1.61,2.5,0c0.01-5.94-0.24-12.03,0.36-17.94      C452.04,832.7,449.54,832.72,449.38,834.3L449.38,834.3z"/>
			</g>
		</g>
		<g>
			<g>
				<path class="st4" d="M402.04,670.04c-1.19-15.91,5.16-31.03,10.23-45.8c4.12-11.97,8.27-23.93,12.46-35.88      c8.72-24.81,17.39-49.7,27.27-74.08c0.6-1.49-1.81-2.14-2.41-0.66c-10.06,24.82-18.88,50.15-27.74,75.41      c-4.15,11.83-8.26,23.68-12.34,35.54c-5.04,14.68-11.16,29.67-9.98,45.47C399.66,671.63,402.16,671.65,402.04,670.04      L402.04,670.04z"/>
			</g>
		</g>
		<g>
			<g>
				<path class="st4" d="M469.93,672.28c-3.12,7.05-5.79,14.24-8,21.62c0.8,0.22,1.61,0.44,2.41,0.66c0.06-0.42,0.13-0.84,0.19-1.26      c0.24-1.57-2.17-2.25-2.41-0.66c-0.06,0.42-0.13,0.84-0.19,1.26c-0.23,1.55,1.94,2.25,2.41,0.66      c2.15-7.17,4.72-14.18,7.75-21.03C472.73,672.08,470.58,670.81,469.93,672.28L469.93,672.28z"/>
			</g>
		</g>
		<g>
			<g>
				<path class="st4" d="M471.29,674.18c-1.77,7.33-2.75,14.73-2.97,22.27c-0.05,1.63,2.37,1.58,2.5,0      c0.08-0.97-0.03-1.23-0.43-2.11c-0.67-1.46-2.83-0.19-2.16,1.26c0.03,0.28,0.06,0.56,0.09,0.84c0.83,0,1.67,0,2.5,0      c0.2-7.31,1.16-14.49,2.88-21.6C474.08,673.28,471.67,672.61,471.29,674.18L471.29,674.18z"/>
			</g>
		</g>
		<g>
			<g>
				<path class="st4" d="M410.9,690.66c5,6.79,11.38,12.11,19.01,15.69c1.45,0.68,2.72-1.47,1.26-2.16      c-7.22-3.39-13.38-8.37-18.11-14.8C412.12,688.11,409.94,689.36,410.9,690.66L410.9,690.66z"/>
			</g>
		</g>
		<g>
			<g>
				<path class="st4" d="M257.27,781.11c7.13,9.5,21.24,12.4,32.14,15.02c13.53,3.25,26.79,3.06,40.58,2.34      c1.6-0.08,1.61-2.58,0-2.5c-12.24,0.64-24.22,1.1-36.32-1.44c-6.01-1.26-11.92-2.97-17.75-4.91      c-6.18-2.05-12.44-4.39-16.49-9.77C258.47,778.58,256.3,779.82,257.27,781.11L257.27,781.11z"/>
			</g>
		</g>
		<g>
			<g>
				<path class="st4" d="M300.09,823.9c1.94-15.72,7.01-30.58,14.79-44.36c7.65-13.55,17.86-25.13,26.6-37.92      c8.96-13.1,13.38-27.75,18.82-42.47c5.41-14.62,12.43-28.65,20.83-41.78c9.63-15.05,21.09-28.81,34.03-41.11      c1.17-1.11-0.6-2.88-1.77-1.77c-22.34,21.24-40.21,46.94-52.11,75.39c-6.55,15.66-10.42,32.43-19.6,46.89      c-8.77,13.81-19.93,25.85-28.14,40.06c-8.44,14.6-13.89,30.32-15.96,47.07C297.4,825.49,299.9,825.48,300.09,823.9L300.09,823.9      z"/>
			</g>
		</g>
		<g>
			<g>
				<path class="st4" d="M437.71,818.72c12.01,0.48,24.48,0.5,35.93-3.64c7.71-2.78,16.91-8.18,19.84-16.38      c0.54-1.52-1.87-2.17-2.41-0.66c-3.16,8.82-14.44,13.88-22.69,16.06c-9.98,2.63-20.44,2.53-30.67,2.12      C436.1,816.15,436.1,818.65,437.71,818.72L437.71,818.72z"/>
			</g>
		</g>
		<g>
			<g>
				<path class="st4" d="M267.99,847.85c0.17,13.35-0.27,26.75-1.64,40.04c-0.28,2.73-1.06,3.65-3.62,5.04      c-1.39,0.76-3.35,1.2-4.85,1.66c-2.73,0.85-5.5,1.55-8.22,2.42c-5.39,1.71-10.01,4.22-14.8,7.18c-9.91,6.11-21.47,8.6-33.02,6.9      c-5.3-0.78-10.53-2.41-15.28-4.89c-2.69-1.41-5.37-2.32-5.48-5.58c-0.11-3.21,0.57-6.66,0.84-9.86c0.14-1.6-2.36-1.59-2.5,0      c-0.18,2.09-0.35,4.18-0.53,6.28c-0.13,1.5-1.09,4.93-0.53,6.28c0.57,1.36,1.8,1.96,3.07,2.8c5.08,3.32,10.87,5.64,16.8,6.88      c11.32,2.36,23.39,1.03,33.73-4.24c6.81-3.47,12.55-7.56,20.01-9.81c3.55-1.07,7.16-1.98,10.64-3.29      c1.82-0.68,4.24-1.35,5.35-3.13c1.11-1.78,0.9-4.53,1.08-6.52c0.41-4.44,0.73-8.88,0.97-13.33c0.45-8.26,0.59-16.54,0.49-24.81      C270.47,846.24,267.97,846.24,267.99,847.85L267.99,847.85z"/>
			</g>
		</g>
		<g>
			<g>
				<path class="st4" d="M239.61,829.29c0.1,7.29-5.24,12.94-9.89,17.96c-4.62,4.99-9.3,9.88-14.36,14.43      c-10.99,9.89-23.03,18.5-34.84,27.37c-1.27,0.95-0.03,3.13,1.26,2.16c12.92-9.7,26.14-19.11,37.97-30.16      c5.55-5.18,11-10.74,15.82-16.62c3.63-4.43,6.62-9.25,6.54-15.14C242.09,827.69,239.59,827.68,239.61,829.29L239.61,829.29z"/>
			</g>
		</g>
		<g>
			<g>
				<path class="st4" d="M240.98,830.65c6.14-0.49,15.84-1.41,16.67,6.65c0.45,4.35-0.47,8.69,0.39,13.12      c1.71,8.73,8.55,0.71,12.09-2.56c1.18-1.09-0.59-2.86-1.77-1.77c-1.33,1.23-5.54,6.17-7.59,5.33c-1.02-0.42-0.89-6.73-0.91-8.09      c-0.06-3.36,1.25-7.48-0.41-10.59c-3.16-5.93-13.04-5.02-18.47-4.59C239.38,828.28,239.37,830.78,240.98,830.65L240.98,830.65z"/>
			</g>
		</g>
		<g>
			<g>
				<path class="st4" d="M267.64,883.77c-7.95,3.2-15.93,6.41-24.23,8.61c-7.59,2.01-14.92,2.87-22.17,6.03      c-12.88,5.62-29.39,1.71-39.09-8.39c-1.12-1.16-2.88,0.61-1.77,1.77c8.55,8.9,22.9,13.64,35.06,11.23      c3.41-0.68,6.36-2.23,9.54-3.57c5.02-2.11,10.27-2.6,15.54-3.78c9.58-2.15,18.71-5.83,27.79-9.48      C269.78,885.59,269.13,883.17,267.64,883.77L267.64,883.77z"/>
			</g>
		</g>
		<g>
			<g>
				<path class="st4" d="M248.03,829.4c3.42-4.76,6.11-9.91,8.13-15.41c0.55-1.51-1.86-2.17-2.41-0.66      c-1.94,5.31-4.58,10.23-7.88,14.82C244.93,829.45,247.1,830.7,248.03,829.4L248.03,829.4z"/>
			</g>
		</g>
		<g>
			<g>
				<path class="st4" d="M271.1,847.8c3.44-8.48,7.04-16.9,10.79-25.25c0.65-1.46-1.5-2.73-2.16-1.26      c-3.84,8.55-7.52,17.17-11.05,25.85C268.09,848.63,270.51,849.27,271.1,847.8L271.1,847.8z"/>
			</g>
		</g>
		<g>
			<g>
				<path class="st4" d="M215.34,872.67c2.69,0.83,5.25,1.94,7.65,3.42c1.41,0.87,3.21,3.12,4.95,2.99c0.52-0.04,1.1-0.36,1.21-0.92      c0.12-0.62,0.04-1.06-0.42-1.52c-0.38-0.37-1.05-0.5-1.51-0.2c-0.03,0.02-0.07,0.05-0.1,0.07c-1.33,0.89-0.08,3.06,1.26,2.16      c0.03-0.02,0.07-0.05,0.1-0.07c-0.5-0.07-1.01-0.13-1.51-0.2c0.05,0.04,0.09,0.09,0.14,0.13c-0.11-0.41-0.21-0.81-0.32-1.22      c-0.01,0.06-0.02,0.11-0.03,0.17c0.4-0.31,0.8-0.61,1.21-0.92c-0.48,0.03-1.85-1.44-2.29-1.74c-1.03-0.71-2.09-1.36-3.19-1.94      c-2.06-1.09-4.22-1.95-6.44-2.63C214.46,869.78,213.8,872.19,215.34,872.67L215.34,872.67z"/>
			</g>
		</g>
		<g>
			<g>
				<path class="st4" d="M220.66,868.44c4.37,2.47,8.69,5,11.94,8.92c0.79,0.95,2.51-0.07,2.09-1.22c-0.08-0.23-0.17-0.45-0.25-0.68      c-0.55-1.5-2.97-0.85-2.41,0.66c0.08,0.23,0.17,0.45,0.25,0.68c0.7-0.41,1.39-0.81,2.09-1.22c-3.37-4.07-7.9-6.74-12.44-9.31      C220.52,865.48,219.26,867.64,220.66,868.44L220.66,868.44z"/>
			</g>
		</g>
		<g>
			<g>
				<path class="st4" d="M226.97,861.68c4.95,1.57,9.39,4.1,13.25,7.57c1,0.9,2.8-0.28,1.96-1.51c-0.13-0.19-0.27-0.39-0.4-0.58      c-0.9-1.32-3.07-0.07-2.16,1.26c0.13,0.19,0.27,0.39,0.4,0.58c0.65-0.5,1.31-1.01,1.96-1.51c-4.19-3.76-9-6.51-14.36-8.21      C226.1,858.78,225.44,861.2,226.97,861.68L226.97,861.68z"/>
			</g>
		</g>
		<g>
			<g>
				<path class="st4" d="M233.14,854.86c4.44,2.24,8.66,4.82,12.69,7.74c1.31,0.94,2.55-1.22,1.26-2.16      c-4.03-2.92-8.25-5.49-12.69-7.74C232.97,851.97,231.7,854.13,233.14,854.86L233.14,854.86z"/>
			</g>
		</g>
		<g>
			<g>
				<path class="st4" d="M238.3,848.41c1.85,0.98,3.71,1.96,5.56,2.94c0.87,0.46,1.73,0.91,2.6,1.37c0.49,0.26,0.99,0.52,1.48,0.78      c0.73,0.7,1.15,0.47,1.26-0.71c-1.59,0.24-0.91,2.65,0.66,2.41c2.17-0.34,1.27-2.64,0.08-3.47c-3.13-2.18-7.01-3.71-10.38-5.49      C238.14,845.5,236.87,847.66,238.3,848.41L238.3,848.41z"/>
			</g>
		</g>
		<g>
			<g>
				<path class="st4" d="M473.75,833.62c0.02,1.97,0.35,3.92,0.37,5.89c0.02,1.61,2.52,1.61,2.5,0c-0.02-1.97-0.35-3.92-0.37-5.89      C476.23,832.02,473.73,832.01,473.75,833.62L473.75,833.62z"/>
			</g>
		</g>
		<g>
			<g>
				<path class="st4" d="M454.18,856.48c-2.04-2.7-11.68-17.13-13.11-7.33c-0.6,4.11-0.07,8.7-0.1,12.85      c-0.03,4.28-0.07,8.56-0.1,12.85c-0.08,9.22-0.15,18.45-0.23,27.67c-0.01,1.61,2.49,1.61,2.5,0c0.1-12.85,0.21-25.69,0.31-38.54      c0.02-2.96,0.05-5.93,0.07-8.89c0.01-1.69-0.86-7.07,1.5-5.83c2.58,1.36,5.25,6.17,7.01,8.5      C452.98,859.01,455.15,857.76,454.18,856.48L454.18,856.48z"/>
			</g>
		</g>
		<g>
			<g>
				<path class="st4" d="M441.45,904.06c12.09,7.88,26.72,11.59,41.12,10.92c10.57-0.5,22.6-4.16,26.39-15.16      c0.52-1.52-1.89-2.18-2.41-0.66c-3.98,11.55-18.19,13.62-28.75,13.38c-12.43-0.28-24.66-3.84-35.08-10.63      C441.36,901.02,440.11,903.18,441.45,904.06L441.45,904.06z"/>
			</g>
		</g>
		<g>
			<g>
				<path class="st4" d="M442.34,894.09c11.58,8.74,27.2,14.43,41.83,13.01c8.71-0.84,22.27-6.57,22.32-16.95      c0.01-1.61-2.49-1.61-2.5,0c-0.05,11.61-17.89,14.95-26.55,14.57c-12.05-0.53-24.27-5.56-33.85-12.79      C442.31,890.96,441.07,893.13,442.34,894.09L442.34,894.09z"/>
			</g>
		</g>
		<g>
			<g>
				<path class="st4" d="M465.62,854.38c3.28,0.4,6.57,0.61,9.87,0.62c1.61,0.01,1.61-2.49,0-2.5c-3.31-0.01-6.59-0.22-9.87-0.62      C464.03,851.69,464.04,854.19,465.62,854.38L465.62,854.38z"/>
			</g>
		</g>
		<g>
			<g>
				<path class="st4" d="M464.96,862.59c4.47,0.7,8.87,0.58,13.29-0.39c-0.41-0.7-0.81-1.39-1.22-2.09      c-0.27,0.28-0.54,0.57-0.81,0.85c-1.11,1.17,0.66,2.94,1.77,1.77c0.27-0.28,0.54-0.57,0.81-0.85c0.88-0.93,0-2.36-1.22-2.09      c-3.96,0.87-7.95,1.01-11.96,0.39C464.06,859.93,463.38,862.34,464.96,862.59L464.96,862.59z"/>
			</g>
		</g>
		<g>
			<g>
				<path class="st4" d="M465.98,870.55c2.12,0.11,4.24,0.21,6.37,0.32c0.98,0.05,1.96,0.1,2.94,0.15c0.45,0.02,2.78-0.17,2.98,0.02      c0-0.59,0-1.18,0-1.77c-0.04,0.05-0.09,0.11-0.13,0.16c0.5-0.07,1.01-0.13,1.51-0.2c-0.04-0.03-0.09-0.06-0.13-0.09      c-1.35-0.89-2.6,1.27-1.26,2.16c0.04,0.03,0.09,0.06,0.13,0.09c0.41,0.27,1.19,0.22,1.51-0.2c0.04-0.05,0.09-0.11,0.13-0.16      c0.41-0.52,0.53-1.25,0-1.77c-1.18-1.14-3.75-0.7-5.24-0.78c-2.94-0.15-5.88-0.3-8.81-0.44      C464.37,867.97,464.37,870.47,465.98,870.55L465.98,870.55z"/>
			</g>
		</g>
		<g>
			<g>
				<path class="st4" d="M468.51,878.94c2.57,0.21,5.26-0.08,7.8-0.41c2.56-0.33,5.56-0.69,7.7-2.27c1.28-0.94,0.04-3.11-1.26-2.16      c-3.49,2.57-10.05,2.67-14.24,2.33C466.91,876.31,466.91,878.82,468.51,878.94L468.51,878.94z"/>
			</g>
		</g>
		<g>
			<g>
				<path class="st4" d="M487.69,861.19c1.21,6.77,2.09,12.95,7.44,17.77c6.58,5.91,11.15,11.86,11.51,21.08      c0.06,1.6,2.56,1.61,2.5,0c-0.25-6.39-2.3-12.4-6.41-17.36c-2.54-3.06-6.08-5.1-8.41-8.33c-2.92-4.06-3.36-9.04-4.22-13.83      C489.82,858.94,487.41,859.61,487.69,861.19L487.69,861.19z"/>
			</g>
		</g>
		<g>
			<g>
				<path class="st4" d="M491.21,292.41c10.54-3.9,18.9-11.71,23.33-22.07c0.62-1.46-1.53-2.74-2.16-1.26      c-4.16,9.74-11.88,17.24-21.83,20.92C489.05,290.55,489.7,292.97,491.21,292.41L491.21,292.41z"/>
			</g>
		</g>
		<g>
			<g>
				<path class="st4" d="M436.18,288.06c0.59-3.96,3.74-6.35,6.79-8.53c1.3-0.93,0.05-3.1-1.26-2.16      c-3.55,2.54-7.25,5.42-7.94,10.03C433.54,288.96,435.95,289.64,436.18,288.06L436.18,288.06z"/>
			</g>
		</g>
		<g>
			<g>
				<path class="st4" d="M430.41,362.96c3.46,0.37,6.85-0.45,9.78-2.32c1.35-0.86,0.1-3.03-1.26-2.16c-2.6,1.67-5.44,2.31-8.51,1.98      C428.81,360.28,428.82,362.79,430.41,362.96L430.41,362.96z"/>
			</g>
		</g>
		<g>
			<g>
				<path class="st4" d="M437.66,370.5c4.5-0.94,8.56-2.87,12.68-4.84c1.45-0.69,0.18-2.85-1.26-2.16      c-3.94,1.88-7.78,3.69-12.08,4.59C435.42,368.42,436.08,370.83,437.66,370.5L437.66,370.5z"/>
			</g>
		</g>
		<g>
			<g>
				<path class="st4" d="M445.93,375.6c4.28-1.06,8.09-2.89,11.48-5.73c1.23-1.04-0.54-2.8-1.77-1.77      c-3.05,2.56-6.53,4.14-10.37,5.09C443.7,373.58,444.36,375.99,445.93,375.6L445.93,375.6z"/>
			</g>
		</g>
		<g>
			<g>
				<path class="st4" d="M394.22,379.25c13.67,18.65,29.28,35.72,46.66,50.96c1.21,1.06,2.98-0.7,1.77-1.77      c-17.22-15.1-32.73-31.98-46.27-50.46C395.44,376.71,393.27,377.95,394.22,379.25L394.22,379.25z"/>
			</g>
		</g>
		<g>
			<g>
				<path class="st4" d="M500.81,517.66c14.55,2.62,29.17-1.5,40.19-11.38c1.2-1.08-0.57-2.84-1.77-1.77      c-10.29,9.23-24.14,13.18-37.75,10.73C499.9,514.96,499.23,517.37,500.81,517.66L500.81,517.66z"/>
			</g>
		</g>
		<g>
			<g>
				<path class="st4" d="M501.95,527.74c13.56,2.51,27.12-1.01,37.74-9.79c1.24-1.03-0.54-2.79-1.77-1.77      c-9.88,8.16-22.71,11.48-35.31,9.15C501.05,525.04,500.37,527.45,501.95,527.74L501.95,527.74z"/>
			</g>
		</g>
	</g>
</g>
</svg>